<?xml version="1.0" encoding="UTF-8" standalone="no"?>
<!-- Generator: Adobe Illustrator 17.0.1, SVG Export Plug-In . SVG Version: 6.00 Build 0)  -->

<svg
   version="1.1"
   id="Layer_1"
   x="0px"
   y="0px"
   width="64"
   height="64"
   viewBox="0 0 64 64"
   xml:space="preserve"
   xmlns="http://www.w3.org/2000/svg"
   xmlns:svg="http://www.w3.org/2000/svg"><defs
   id="defs5" />
<g
   id="icon-s-clipboard"
   transform="scale(2)">
	<rect
   id="icon-s-clipboard_1_"
   style="opacity:0;fill:#ffffff"
   width="32"
   height="32"
   x="0"
   y="0" />
	<g
   style="opacity:0.6"
   id="g1">
		<path
   style="fill:#ffffff"
   d="M 24.397,27.126 H 7.603 c -1.103,0 -2,-0.897 -2,-2 v -18.5 c 0,-1.103 0.897,-2 2,-2 H 12 c 0.552,0 1,0.448 1,1 0,0.552 -0.448,1 -1,1 H 7.603 v 18.5 H 24.398 V 6.626 H 20 c -0.553,0 -1,-0.448 -1,-1 0,-0.552 0.447,-1 1,-1 h 4.397 c 1.103,0 2,0.897 2,2 v 18.5 c 0,1.103 -0.897,2 -2,2 z"
   id="path1" />
	</g>
	<path
   style="fill:#ffffff"
   d="m 18.5,9.013 h -5 c -1.103,0 -2,-0.897 -2,-2 v -3 c 0,-1.103 0.897,-2 2,-2 h 5 c 1.103,0 2,0.897 2,2 v 3 c 0,1.103 -0.897,2 -2,2 z m 0,-2 v 1 z m -5,-3 v 3 h 4.997 l 0.003,-3 z"
   id="path2" />
	<path
   style="fill:#ffffff"
   d="m 20.813,12.988 h -9.625 c -0.552,0 -1,-0.448 -1,-1 0,-0.552 0.448,-1 1,-1 h 9.625 c 0.553,0 1,0.448 1,1 0,0.552 -0.448,1 -1,1 z"
   id="path3" />
	<path
   style="fill:#ffffff"
   d="m 20.813,17.625 h -9.625 c -0.552,0 -1,-0.447 -1,-1 0,-0.552 0.448,-1 1,-1 h 9.625 c 0.553,0 1,0.448 1,1 0,0.553 -0.448,1 -1,1 z"
   id="path4" />
	<path
   style="fill:#ffffff"
   d="m 20.813,22.262 h -9.625 c -0.552,0 -1,-0.447 -1,-1 0,-0.553 0.448,-1 1,-1 h 9.625 c 0.553,0 1,0.447 1,1 0,0.553 -0.448,1 -1,1 z"
   id="path5" />
</g>
</svg>
