<?xml version="1.0" encoding="UTF-8" standalone="no"?>
<!-- Generator: Adobe Illustrator 22.1.0, SVG Export Plug-In . SVG Version: 6.00 Build 0)  -->

<svg
   version="1.1"
   id="Layer_1"
   x="0px"
   y="0px"
   width="64"
   height="64"
   viewBox="0 0 64 64"
   xml:space="preserve"
   xmlns="http://www.w3.org/2000/svg"
   xmlns:svg="http://www.w3.org/2000/svg"><defs
   id="defs2" />
<path
   style="opacity:0.6;fill:#ffffff"
   d="m 22,41.5 h 20 c 4.971,0 9,4.029 9,9 0,0.338 -0.019,0.672 -0.055,1 h 2.01 C 52.985,51.171 53,50.837 53,50.5 53,44.425 48.075,39.5 42,39.5 H 22 c -6.075,0 -11,4.925 -11,11 0,0.337 0.015,0.671 0.045,1 h 2.01 C 13.019,51.172 13,50.838 13,50.5 c 0,-4.971 4.029,-9 9,-9 z"
   id="path1" />
<path
   style="fill:#ffffff;stroke-width:0.705882"
   d="M 46.117647,35.5 H 17.882353 c -1.946118,0 -3.529412,-1.583294 -3.529412,-3.529412 V 15.029412 c 0,-1.946118 1.583294,-3.529412 3.529412,-3.529412 h 28.235294 c 1.946118,0 3.529412,1.583294 3.529412,3.529412 v 16.941176 c 0,1.946118 -1.583294,3.529412 -3.529412,3.529412 z M 17.882353,12.911765 c -1.167529,0 -2.117647,0.950117 -2.117647,2.117647 v 16.941176 c 0,1.16753 0.950118,2.117647 2.117647,2.117647 h 28.235294 c 1.167529,0 2.117647,-0.950117 2.117647,-2.117647 V 15.029412 c 0,-1.16753 -0.950118,-2.117647 -2.117647,-2.117647 z"
   id="path1-3" /><path
   style="opacity:0.6;fill:#ffffff;stroke-width:0.534649"
   d="M 24.353,26.644349 V 20.35565 c 0,-0.157789 0.447,-0.28585 1,-0.28585 0.553001,0 1,0.128061 1,0.28585 v 6.288699 c 0,0.158075 -0.446999,0.28585 -1,0.28585 -0.553,0 -1,-0.127775 -1,-0.28585 z"
   id="path17" /><path
   style="opacity:0.6;fill:#ffffff;stroke-width:0.534649"
   d="M 37.647,26.644349 V 20.35565 c 0,-0.157789 0.447,-0.28585 1,-0.28585 0.553001,0 1,0.128061 1,0.28585 v 6.288699 c 0,0.158075 -0.446999,0.28585 -1,0.28585 -0.553,0 -1,-0.127775 -1,-0.28585 z"
   id="path2" /><path
   style="display:none;fill:#ffffff;stroke:#ffffff;stroke-width:1.531;stroke-linecap:round;stroke-linejoin:miter;stroke-miterlimit:0;stroke-dasharray:none;paint-order:stroke fill markers"
   d="m 53.647,19.08567 c 0,2.942884 0,5.885776 0,8.82866"
   id="path3" /><path
   style="fill:#ffffff"
   d="m 54.34837,30.159 10e-4,-13.318 c 0,0 0.44763,0 0.99963,0 0.552,0 1.00037,0.447952 1.00037,0.999952 v 0 l -10e-4,11.318149 c 0,0.553 -0.448,0.999899 -1,0.999899 -0.552,0 -1,0 -1,0 z"
   id="path1-7" /><path
   style="fill:#ffffff"
   d="M 9.652,30.159 9.651,16.841 c 0,0 -0.44763,0 -0.99963,0 -0.552,0 -1.00037,0.447952 -1.00037,0.999952 v 0 l 0.001,11.318149 c 0,0.553 0.448,0.999899 1,0.999899 0.552,0 1,0 1,0 z"
   id="path7" /></svg>
