<?xml version="1.0" encoding="UTF-8" standalone="no"?>
<!-- Generator: Adobe Illustrator 17.0.1, SVG Export Plug-In . SVG Version: 6.00 Build 0)  -->

<svg
   version="1.1"
   id="Layer_1"
   x="0px"
   y="0px"
   width="64"
   height="64"
   viewBox="0 0 64 64"
   xml:space="preserve"
   xmlns="http://www.w3.org/2000/svg"
   xmlns:svg="http://www.w3.org/2000/svg"><g
   id="path1"
   style="opacity:1"><path
     style="baseline-shift:baseline;display:inline;overflow:visible;vector-effect:none;fill:#ffffff;stroke-width:1.20701;stroke-linecap:square;stroke-miterlimit:0;enable-background:accumulate;stop-color:#000000;stop-opacity:1"
     d="m 23.466035,12.126708 c -3.393484,0 -6.796272,1.305774 -9.389718,3.899218 -5.1864226,5.186424 -5.1864226,13.590659 0,18.777081 l 17.070286,17.070285 h 1.706792 L 49.923683,34.803007 c 5.186423,-5.186422 5.186422,-13.590656 0,-18.777081 -2.593147,-2.593145 -5.993759,-3.899218 -9.387361,-3.899218 -3.063998,0 -6.059806,1.215535 -8.536323,3.331073 -2.476006,-2.115383 -5.470075,-3.331074 -8.533964,-3.331073 z m 0,2.414028 c 2.777232,0 5.545409,1.056826 7.680568,3.191985 h 1.706792 c 2.134893,-2.134891 4.905547,-3.191985 7.682927,-3.191985 2.777378,0 5.545393,1.056809 7.680567,3.191985 4.270221,4.270219 4.270221,11.093273 0,15.363494 L 31.999999,49.313104 15.783109,33.096215 c -4.270219,-4.270221 -4.270219,-11.093275 0,-15.363494 2.134877,-2.134876 4.905694,-3.191985 7.682926,-3.191985 z"
     id="path3" /></g><defs
   id="defs4" />

</svg>
