<?xml version="1.0" encoding="UTF-8" standalone="no"?>
<svg
   width="64"
   height="64"
   viewBox="0 0 24 24"
   fill="none"
   stroke="currentColor"
   stroke-width="0.75"
   stroke-linecap="round"
   stroke-linejoin="round"
   class="lucide lucide-crown-icon lucide-crown"
   version="1.1"
   id="svg2"
   xmlns="http://www.w3.org/2000/svg"
   xmlns:svg="http://www.w3.org/2000/svg">
  <defs
     id="defs2" />
  <path
     d="m 11.562,3.266 a 0.5,0.5 0 0 1 0.876,0 L 15.39,8.87 a 1,1 0 0 0 1.516,0.294 L 21.183,5.5 a 0.5,0.5 0 0 1 0.798,0.519 l -2.834,10.246 a 1,1 0 0 1 -0.956,0.734 H 5.81 A 1,1 0 0 1 4.853,16.265 L 2.02,6.02 A 0.5,0.5 0 0 1 2.818,5.501 L 7.094,9.165 A 1,1 0 0 0 8.61,8.871 Z"
     id="path1"
     style="stroke:#ffffff;stroke-opacity:1" />
  <path
     d="M 5,21 H 19"
     id="path2"
     style="opacity:0.5;stroke:#ffffff;stroke-opacity:1" />
</svg>
