<?xml version="1.0" encoding="UTF-8" standalone="no"?>
<svg
   version="1.1"
   id="Layer_1"
   x="0px"
   y="0px"
   width="64"
   height="64"
   viewBox="0 0 64 64"
   xml:space="preserve"
   xmlns="http://www.w3.org/2000/svg"
   xmlns:svg="http://www.w3.org/2000/svg"><defs
   id="defs4" />

<circle
   style="display:inline;opacity:0.499559;fill:none;fill-opacity:1;stroke:#ffffff;stroke-width:2.13556;stroke-miterlimit:0;stroke-dasharray:none;stroke-opacity:1"
   id="path2"
   cx="32"
   cy="32"
   r="8.9322195" /><path
   id="path46"
   style="display:inline;fill:none;fill-opacity:1;stroke:#ffffff;stroke-width:2;stroke-linecap:round;stroke-linejoin:round;stroke-miterlimit:0;stroke-dasharray:none;stroke-opacity:1"
   transform="rotate(-60.00127,32,32)"
   d="m 32,8.9765625 c 3.148684,0.015893 7.990233,1.8672595 7.990233,9.1835925 m -27.929115,2.328126 c 1.588106,-2.718894 5.612211,-5.986115 11.948341,-2.327948 M 12.061118,43.511719 C 10.50054,40.776932 9.6830959,35.658344 16.019226,32.000178 M 32,55.023438 c -3.148684,-0.01589 -7.990233,-1.86726 -7.990233,-9.183593 m 27.929116,-2.328128 c -1.588106,2.718894 -5.612211,5.986116 -11.948341,2.32795 M 51.939137,20.488723 c 1.560518,2.734822 2.377848,7.853427 -3.958363,11.511453 M 32,8.9765625 c -3.148684,0.015893 -7.990233,1.8672595 -7.990233,9.1835925 m 27.929115,2.328126 C 50.350776,17.769387 46.326671,14.502166 39.990541,18.160333 M 51.938882,43.511719 C 53.49946,40.776932 54.316904,35.658344 47.980774,32.000178 M 32,55.023438 c 3.148684,-0.01589 7.990233,-1.86726 7.990233,-9.183593 M 12.061117,43.511717 c 1.588106,2.718894 5.612211,5.986116 11.948341,2.32795 M 12.060863,20.488723 c -1.560518,2.734822 -2.377848,7.853427 3.958363,11.511453" /></svg>
