<?xml version="1.0" encoding="UTF-8" standalone="no"?>
<!-- Generator: Adobe Illustrator 17.0.1, SVG Export Plug-In . SVG Version: 6.00 Build 0)  -->

<svg
   version="1.1"
   id="Layer_1"
   x="0px"
   y="0px"
   width="64"
   height="64"
   viewBox="0 0 64 64"
   xml:space="preserve"
   xmlns="http://www.w3.org/2000/svg"
   xmlns:svg="http://www.w3.org/2000/svg"><defs
   id="defs2" />

<path
   id="path5"
   style="baseline-shift:baseline;display:inline;overflow:visible;vector-effect:none;fill:#ffffff;stroke-linecap:round;stroke-linejoin:round;enable-background:accumulate;stop-color:#000000"
   d="m 19.693359,12.882812 c -0.734365,0.473347 -1.438424,0.986616 -2.111328,1.539063 -1.484299,8.580985 0.02629,17.413007 4.205078,25.089844 -3.024379,1.639881 -6.310035,2.812148 -9.769531,3.335937 0.304313,0.559939 0.631707,1.106545 0.980469,1.636719 3.689802,-0.639249 7.206315,-1.925377 10.400391,-3.769531 3.405768,-1.966379 6.406695,-4.607221 8.896484,-7.740235 3.458706,0.498014 6.743983,1.626968 9.771484,3.244141 -4.679883,7.625052 -11.915262,13.345409 -20.474609,15.996094 0.771711,0.397668 1.57048,0.753736 2.390625,1.0625 8.175093,-3.004253 15.068962,-8.72962 19.628906,-16.1875 2.932341,1.799328 5.59022,4.05879 7.773438,6.792968 0.332032,-0.540946 0.640972,-1.096304 0.927734,-1.666015 -2.398691,-2.876255 -5.270553,-5.280721 -8.464844,-7.125 -3.406019,-1.966524 -7.193875,-3.246189 -11.152344,-3.835938 -1.297525,-3.243808 -1.963025,-6.654144 -2.076171,-10.083984 8.940216,0.240274 17.509706,3.641553 24.083984,9.724609 -0.04192,-0.879442 -0.134565,-1.745381 -0.273437,-2.595703 -6.688486,-5.575143 -15.091593,-8.682274 -23.828126,-8.902343 0.09205,-3.436347 0.71989,-6.863762 1.994141,-10.1191411 -0.197759,-0.00507 -0.39671,-0.00781 -0.595703,-0.00781 -0.440833,0 -0.877908,0.012414 -1.3125,0.037109 -1.289345,3.5129301 -1.933594,7.1991451 -1.933594,10.8847651 0,3.934053 0.784547,7.85422 2.253906,11.578125 -2.160467,2.745567 -4.781553,5.025005 -7.695312,6.837891 -4.263237,-7.86429 -5.601852,-16.989562 -3.619141,-25.726563 z" /><circle
   cx="32"
   cy="32"
   r="23.614458"
   id="circle2"
   style="display:inline;opacity:0.5;fill:none;stroke:#ffffff;stroke-width:1.77108;stroke-linecap:round;stroke-linejoin:round;stroke-opacity:1" /></svg>
