<?xml version="1.0" encoding="UTF-8" standalone="no"?>
<svg
   version="1.1"
   id="Layer_1"
   x="0px"
   y="0px"
   width="64"
   height="64"
   viewBox="0 0 64 64"
   xml:space="preserve"
   xmlns="http://www.w3.org/2000/svg"
   xmlns:svg="http://www.w3.org/2000/svg"><defs
   id="defs4" />

<path
   fill-rule="evenodd"
   clip-rule="evenodd"
   fill="#ffffff"
   d="m 10.934366,29.221564 c 13.099768,-5.689042 21.820471,-9.469261 26.199537,-11.303228 12.463493,-5.202479 15.083446,-6.100749 16.767703,-6.138176 0.374279,0 1.197693,0.07485 1.759112,0.523989 0.449135,0.37428 0.561419,0.860842 0.636274,1.235122 0.07485,0.374279 0.149713,1.160265 0.07485,1.759111 -0.673699,7.111303 -3.593077,24.365569 -5.090194,32.300285 -0.636274,3.368511 -1.871395,4.491351 -3.069089,4.603634 -2.619953,0.224571 -4.603632,-1.721683 -7.111302,-3.368511 -3.967358,-2.582528 -6.175605,-4.191929 -10.03068,-6.737026 -4.45392,-2.919377 -1.571972,-4.528776 0.973126,-7.148729 0.673703,-0.673703 12.16407,-11.153517 12.388638,-12.089215 0.03743,-0.11229 0.03743,-0.561419 -0.224568,-0.785987 -0.261995,-0.224567 -0.636273,-0.149711 -0.935698,-0.07485 -0.411706,0.07485 -6.699595,4.266782 -18.938522,12.53835 -1.796538,1.235121 -3.405939,1.833967 -4.865627,1.79654 -1.6094,-0.03743 -4.678489,-0.89827 -6.99902,-1.646829 C 9.6618138,33.787775 7.4161394,33.301213 7.6032775,31.729239 7.7155673,30.905825 8.8383998,30.082412 10.934363,29.22157 Z"
   id="path2-3"
   style="fill:#ffffff;fill-opacity:0;stroke:#ffffff;stroke-width:1.18792;stroke-linecap:butt;stroke-dasharray:none;stroke-opacity:1;paint-order:stroke fill markers" /></svg>
