<?xml version="1.0" encoding="UTF-8" standalone="no"?>
<!-- Generator: Adobe Illustrator 17.0.1, SVG Export Plug-In . SVG Version: 6.00 Build 0)  -->

<svg
   version="1.1"
   id="Layer_1"
   x="0px"
   y="0px"
   width="64"
   height="64"
   viewBox="0 0 64 64"
   xml:space="preserve"
   xmlns="http://www.w3.org/2000/svg"
   xmlns:svg="http://www.w3.org/2000/svg"><defs
   id="defs2" />

<path
   d="m 40.065884,12.124699 h -16.1318 c -2.1484,0 -3.222357,0 -4.194288,0.300707 a 6.73273,6.73273 0 0 0 -2.347084,1.281425 c -0.778128,0.654625 -1.359042,1.558214 -2.520868,3.365388 l -5.1281407,7.977545 c -0.767391,1.194044 -1.151086,1.791553 -1.255552,2.419329 a 3.08616,3.08616 0 0 0 0.176713,1.645106 c 0.235294,0.591653 0.737126,1.093484 1.7412747,2.097145 l 19.054427,19.054914 c 0.888943,0.888455 1.33317,1.333171 1.845739,1.499634 0.451062,0.146449 0.936296,0.146449 1.387357,0 0.51257,-0.165974 0.956798,-0.61069 1.845253,-1.499634 L 53.594316,31.211344 c 1.003662,-1.003661 1.505492,-1.505492 1.740786,-2.097145 a 3.0851837,3.0851837 0 0 0 0.176716,-1.645106 c -0.10447,-0.628262 -0.488163,-1.225285 -1.255553,-2.419329 l -5.128141,-7.976567 c -1.161827,-1.807665 -1.742739,-2.711252 -2.52087,-3.365878 a 6.73273,6.73273 0 0 0 -2.347081,-1.281425 c -0.971444,-0.300708 -2.045888,-0.300708 -4.194289,-0.300708 z"
   fill="#30a1f5"
   id="path1-67"
   style="opacity:0.5;fill:none;stroke:#ffffff;stroke-width:2.89313;stroke-dasharray:none;stroke-opacity:1" /><path
   d="m 37.012431,18.417596 c 0.262144,-0.707836 1.26434,-0.707836 1.525995,0 l 1.811081,4.894799 a 1.0739564,1.0739564 0 0 0 0.63461,0.63461 l 4.894799,1.811082 c 0.708325,0.262141 0.708325,1.264339 0,1.525994 l -4.894799,1.81108 a 1.0739564,1.0739564 0 0 0 -0.63461,0.63461 l -1.811081,4.894802 c -0.262142,0.708322 -1.264339,0.708322 -1.525995,0 l -1.81108,-4.894802 a 1.0739564,1.0739564 0 0 0 -0.63461,-0.63461 l -4.894801,-1.81108 c -0.708323,-0.262144 -0.708323,-1.263853 0,-1.525994 l 4.894801,-1.811082 a 1.0739564,1.0739564 0 0 0 0.63461,-0.63461 z"
   fill="#ffffff"
   id="path2"
   style="opacity:1;fill:#ffffff;fill-opacity:1;stroke:none;stroke-width:2.89313;stroke-dasharray:none;stroke-opacity:1" /></svg>
