<?xml version="1.0" encoding="UTF-8" standalone="no"?>
<!-- Generator: Adobe Illustrator 17.0.1, SVG Export Plug-In . SVG Version: 6.00 Build 0)  -->

<svg
   version="1.1"
   id="Layer_1"
   x="0px"
   y="0px"
   width="64"
   height="64"
   viewBox="0 0 64 64"
   xml:space="preserve"
   xmlns="http://www.w3.org/2000/svg"
   xmlns:svg="http://www.w3.org/2000/svg"><defs
   id="defs2" />
<path
   style="opacity:0.6;fill:#ffffff"
   d="M 32,56.5 C 18.491,56.5 7.5,45.51 7.5,32 7.5,18.49 18.491,7.5 32,7.5 45.51,7.5 56.5,18.49 56.5,32 56.5,45.51 45.51,56.5 32,56.5 Z m 0,-47 C 19.593,9.5 9.5,19.593 9.5,32 9.5,44.406 19.593,54.5 32,54.5 44.406,54.5 54.5,44.406 54.5,32 54.5,19.593 44.406,9.5 32,9.5 Z"
   id="path1" />
<path
   class="st1"
   d="m 24.163006,20.55 h 15.7 c 0.6,0 1.1,0.1 1.7,0.4 0.7,0.3 1.1,0.8 1.3,1.2 0,0 0,0.1 0.1,0.1 0.3,0.5 0.5,1.1 0.5,1.8 0,0.6 -0.1,1.2 -0.5,1.8 0,0 0,0 0,0 l -9.9,17 c -0.2,0.4 -0.6,0.6 -1.1,0.6 -0.4,0 -0.8,-0.2 -1.1,-0.6 l -9.7,-17 c 0,0 0,0 0,0 -0.2,-0.4 -0.6,-0.9 -0.6,-1.7 -0.1,-0.7 0.1,-1.3 0.4,-1.9 0.3,-0.6 0.8,-1.1 1.5,-1.3 0.6,-0.4 1.3,-0.4 1.7,-0.4 z m 6.6,2.4 h -6.6 c -0.4,0 -0.6,0 -0.7,0.1 -0.2,0.1 -0.3,0.2 -0.4,0.4 -0.1,0.1 -0.1,0.3 -0.1,0.5 0,0.1 0.1,0.2 0.3,0.6 0,0 0,0 0,0 l 7.5,13 z m 2.4,0 v 14.7 l 7.6,-13.1 c 0.1,-0.2 0.1,-0.4 0.1,-0.6 0,-0.2 0,-0.4 -0.1,-0.5 -0.1,-0.1 -0.1,-0.2 -0.2,-0.2 0,0 -0.1,-0.1 -0.1,-0.1 -0.2,-0.1 -0.4,-0.1 -0.7,-0.1 h -6.6 z"
   id="path1-6"
   style="clip-rule:evenodd;fill:#ffffff;fill-rule:evenodd" /></svg>
