<?xml version="1.0" encoding="UTF-8" standalone="no"?>
<!-- Generator: Adobe Illustrator 17.0.1, SVG Export Plug-In . SVG Version: 6.00 Build 0)  -->

<svg
   version="1.1"
   id="Layer_1"
   x="0px"
   y="0px"
   width="64px"
   height="64px"
   viewBox="0 0 64 64"
   style="enable-background:new 0 0 64 64;"
   xml:space="preserve"
   sodipodi:docname="icon-m-camera.svg"
   inkscape:version="1.4.2 (ebf0e940d0, 2025-05-08)"
   xmlns:inkscape="http://www.inkscape.org/namespaces/inkscape"
   xmlns:sodipodi="http://sodipodi.sourceforge.net/DTD/sodipodi-0.dtd"
   xmlns="http://www.w3.org/2000/svg"
   xmlns:svg="http://www.w3.org/2000/svg"><defs
   id="defs4"><inkscape:path-effect
     effect="fillet_chamfer"
     id="path-effect12"
     is_visible="true"
     lpeversion="1"
     nodesatellites_param="F,0,0,1,0,3.977634,0,1 @ F,0,0,1,0,3.977634,0,1 @ F,0,0,1,0,3.977634,0,1 @ F,0,0,1,0,3.977634,0,1"
     radius="0"
     unit="px"
     method="auto"
     mode="F"
     chamfer_steps="1"
     flexible="false"
     use_knot_distance="true"
     apply_no_radius="true"
     apply_with_radius="true"
     only_selected="false"
     hide_knots="false" /></defs><sodipodi:namedview
   id="namedview4"
   pagecolor="#000000"
   bordercolor="#000000"
   borderopacity="0.25"
   inkscape:showpageshadow="2"
   inkscape:pageopacity="0.0"
   inkscape:pagecheckerboard="0"
   inkscape:deskcolor="#d1d1d1"
   inkscape:zoom="8.8599229"
   inkscape:cx="40.011635"
   inkscape:cy="28.21695"
   inkscape:window-width="1536"
   inkscape:window-height="955"
   inkscape:window-x="0"
   inkscape:window-y="0"
   inkscape:window-maximized="1"
   inkscape:current-layer="Layer_1"
   showguides="false" />

<path
   id="path18"
   style="enable-background:accumulate;opacity:1;baseline-shift:baseline;display:inline;overflow:visible;vector-effect:none;fill:#ffffff;stroke-linecap:square;stop-color:#000000;stop-opacity:1"
   d="M 19.951172,7.9707031 C 17.2131,7.9700959 14.972049,10.2131 14.972656,12.951172 v 37.435547 h 34.054688 v -37.435547 -0.002 c -4.81e-4,-2.73712 -2.241108,-4.9790759 -4.978516,-4.9784689 z m 0,2 h 24.097656 c 1.656878,-3.674e-4 2.978883,1.3216379 2.978516,2.9785159 v 35.4375 H 16.972656 v -35.4375 c -3.67e-4,-1.656878 1.321638,-2.9788833 2.978516,-2.9785159 z M 14.988975,50.386719 c -6.07e-4,2.738073 2.240443,4.979123 4.978516,4.978516 h 29.006424 c 0.01221,2e-6 0.03711,-2 0.03711,-2 H 19.967491 c -1.656879,3.66e-4 -2.978883,-1.321637 -2.978516,-2.978516 z" /><rect
   style="font-variation-settings:normal;opacity:0.6;fill:#ffffff;fill-opacity:1;stroke:none;stroke-width:1.9921;stroke-linecap:square;stroke-linejoin:miter;stroke-miterlimit:4;stroke-dasharray:none;stroke-dashoffset:0;stroke-opacity:1;paint-order:normal"
   id="rect16"
   width="17.275"
   height="9.9838657"
   x="23.362499"
   y="15.972656"
   ry="2.9863667" /></svg>
