<?xml version="1.0" encoding="UTF-8" standalone="no"?>

<svg
   version="1.1"
   id="Layer_1"
   x="0px"
   y="0px"
   width="64"
   height="64"
   viewBox="0 0 64 64"
   xml:space="preserve"
   xmlns="http://www.w3.org/2000/svg"
   xmlns:svg="http://www.w3.org/2000/svg"><defs
   id="defs4" />
<path
   style="opacity:0.5;fill:#ffffff"
   d="m 5.55,56.875 h 1 c 4.141,0 7.35,-2.53 7.866,-6.031 h 21.322 c 12.028,0 21.813,-9.184 21.813,-20.473 C 57.551,19.139 47.766,10 35.738,10 35.652,10 27.053,10.001 26.881,10.005 15.12,10.242 5.551,19.379 5.551,30.371 V 56.875 Z M 35.738,12 c 10.925,0 19.813,8.241 19.813,18.371 0,10.186 -8.888,18.473 -19.813,18.473 H 12.489 v 1 c 0,2.578 -2.063,4.587 -4.938,4.967 v -24.44 c 0,-9.911 8.69,-18.15 19.373,-18.366 C 27.185,12.001 35.585,12 35.738,12 Z"
   id="path1" /><path
   style="fill:#ffffff"
   d="m 21.389,35.5 h -0.777 c -2.267,0 -4.111,-1.845 -4.111,-4.111 v -0.777 c 0,-2.267 1.844,-4.111 4.111,-4.111 h 0.777 c 2.267,0 4.111,1.844 4.111,4.111 v 0.777 c 0,2.266 -1.844,4.111 -4.111,4.111 z m -0.778,-7 c -1.164,0 -2.111,0.947 -2.111,2.111 v 0.777 c 0,1.164 0.947,2.111 2.111,2.111 h 0.777 c 1.164,0 2.111,-0.947 2.111,-2.111 v -0.777 c 0,-1.164 -0.947,-2.111 -2.111,-2.111 z"
   id="path2" /><path
   style="fill:#ffffff"
   d="m 32.389,35.5 h -0.777 c -2.267,0 -4.111,-1.845 -4.111,-4.111 v -0.777 c 0,-2.267 1.844,-4.111 4.111,-4.111 h 0.777 c 2.267,0 4.111,1.844 4.111,4.111 v 0.777 c 0,2.266 -1.845,4.111 -4.111,4.111 z m -0.778,-7 c -1.164,0 -2.111,0.947 -2.111,2.111 v 0.777 c 0,1.164 0.947,2.111 2.111,2.111 h 0.777 c 1.164,0 2.111,-0.947 2.111,-2.111 v -0.777 c 0,-1.164 -0.947,-2.111 -2.111,-2.111 z"
   id="path3" /><path
   style="fill:#ffffff"
   d="m 43.389,35.5 h -0.777 c -2.267,0 -4.111,-1.845 -4.111,-4.111 v -0.777 c 0,-2.267 1.845,-4.111 4.111,-4.111 h 0.777 c 2.267,0 4.111,1.844 4.111,4.111 v 0.777 c 0,2.266 -1.845,4.111 -4.111,4.111 z m -0.778,-7 c -1.164,0 -2.111,0.947 -2.111,2.111 v 0.777 c 0,1.164 0.947,2.111 2.111,2.111 h 0.777 c 1.164,0 2.111,-0.947 2.111,-2.111 v -0.777 c 0,-1.164 -0.947,-2.111 -2.111,-2.111 z"
   id="path4" />
<g
   id="g5"
   transform="matrix(0.6653359,0,0,0.6653359,18.241366,0.76581464)">
		<circle
   style="fill:#ffffff"
   cx="46.249001"
   cy="16.75"
   r="9.8979998"
   id="circle4" />
		<path
   style="fill:#ffffff"
   d="m 32.422,33.156 c -0.73,0 -1.385,-0.25 -1.856,-0.722 -0.612,-0.612 -0.851,-1.533 -0.654,-2.527 0.171,-0.863 0.652,-1.726 1.355,-2.429 l 7.223,-7.224 1.414,1.414 -7.223,7.224 c -0.85,0.85 -0.985,1.844 -0.701,2.128 0.284,0.284 1.277,0.149 2.128,-0.701 l 7.224,-7.224 1.414,1.414 -7.224,7.224 c -0.703,0.703 -1.565,1.184 -2.429,1.355 -0.228,0.046 -0.453,0.068 -0.671,0.068 z"
   id="path4-3" />
	</g></svg>
