<?xml version="1.0" encoding="UTF-8" standalone="no"?>
<!-- Generator: Adobe Illustrator 17.0.1, SVG Export Plug-In . SVG Version: 6.00 Build 0)  -->

<svg
   version="1.1"
   id="Layer_1"
   x="0px"
   y="0px"
   width="64"
   height="64"
   viewBox="0 0 64 64"
   xml:space="preserve"
   xmlns="http://www.w3.org/2000/svg"
   xmlns:svg="http://www.w3.org/2000/svg"><defs
   id="defs4" />
<path
   id="path6"
   style="display:inline;opacity:0.5;fill:#ffffff"
   d="m 28.261719,13.15625 c -3.36375,0 -6.552449,0.718278 -9.400391,2 h 9.400391 17.77539 c -2.847941,-1.281722 -6.036641,-2 -9.40039,-2 z m 8.375,0 c 3.363749,0 6.552449,0.718278 9.40039,2 h 5.47461 v -1 c 0,-2.578 2.0625,-4.5867969 4.9375,-4.9667969 V 25.064453 c 1.256438,2.550501 1.969796,5.384153 2,8.367188 V 7.125 h -1 c -4.141,0 -7.349235,2.53025 -7.865235,6.03125 z m 21.8125,20.275391 c -0.0302,-2.983035 -0.743562,-5.816687 -2,-8.367188 v 8.564453 c 0,0.619438 -0.03335,1.233066 -0.09961,1.837891 -0.785593,7.295682 -6.19915,13.335198 -13.466797,15.582031 -0.0225,0.007 -0.04387,0.01648 -0.06641,0.02344 -0.470656,0.143749 -0.952114,0.261873 -1.4375,0.373046 -0.169472,0.03927 -0.334742,0.08791 -0.505859,0.123047 -0.392948,0.07974 -0.794098,0.133714 -1.195313,0.191407 -0.264854,0.03856 -0.526817,0.08473 -0.794922,0.113281 -0.347753,0.03659 -0.701772,0.05071 -1.054687,0.07031 -0.251429,0.0141 -0.498185,0.04565 -0.751953,0.05078 -0.0094,1.44e-4 -0.29448,-1.37e-4 -0.324219,0 -0.03884,2.08e-4 -0.07634,0.0059 -0.115234,0.0059 -0.07438,0 -2.097703,7.02e-4 -4.1875,0 -2.089797,7.02e-4 -4.113122,0 -4.1875,0 -0.03889,0 -0.07639,-0.0057 -0.115235,-0.0059 -0.02974,-1.37e-4 -0.31482,1.44e-4 -0.324218,0 -0.253361,-0.0051 -0.498971,-0.03672 -0.75,-0.05078 -0.354228,-0.01964 -0.709566,-0.03356 -1.058594,-0.07031 -0.262134,-0.02796 -0.518316,-0.07184 -0.777344,-0.109375 -0.408033,-0.05836 -0.815351,-0.116113 -1.214844,-0.197266 -0.162901,-0.0335 -0.32101,-0.07799 -0.482422,-0.115234 C 14.890955,49.479274 8.4492187,42.247525 8.4492188,33.628906 v -8.564453 c -1.2841499,2.606754 -2.0000001,5.508904 -2.0000001,8.564453 0,0.687506 0.039737,1.366903 0.1113282,2.03711 0.8702427,8.001287 6.8044121,14.721155 14.7421871,17.251953 0.0599,0.01891 0.117605,0.04212 0.177735,0.06055 0.508372,0.157423 1.03097,0.283916 1.554687,0.40625 0.189031,0.04366 0.373531,0.09771 0.564453,0.136718 0.422152,0.08725 0.854502,0.145306 1.285157,0.208985 0.305027,0.04458 0.606977,0.09826 0.916015,0.130859 0.370933,0.03955 0.748872,0.05458 1.125,0.07617 0.406646,0.02318 0.810366,0.05465 1.222656,0.05664 0.39496,0.0018 2.229847,0.0052 4.300782,0.0059 2.070935,-6.83e-4 3.905821,-0.0041 4.300781,-0.0059 0.41229,-0.002 0.816011,-0.03346 1.222656,-0.05664 0.376129,-0.02159 0.754067,-0.03662 1.125,-0.07617 0.309038,-0.0326 0.610989,-0.08628 0.916016,-0.130859 0.430759,-0.0637 0.862905,-0.123657 1.285156,-0.210938 0.187334,-0.03828 0.369174,-0.09005 0.554688,-0.132812 0.529673,-0.12348 1.058282,-0.250796 1.572265,-0.410157 0.05028,-0.01543 0.09832,-0.03502 0.148438,-0.05078 8.614602,-2.736887 14.875,-10.407626 14.875,-19.296875 z M 6.4492187,7.125 v 26.306641 c 0.030203,-2.983035 0.7435622,-5.816687 2.0000001,-8.367188 V 9.1894531 c 2.8750002,0.38 4.9394532,2.3887969 4.9394532,4.9667969 v 1 h 5.472656 c 2.847942,-1.281722 6.036641,-2 9.400391,-2 H 15.314453 C 14.798453,9.65525 11.590219,7.125 7.4492187,7.125 Z" />
<g
   id="g8"
   transform="matrix(0.56400693,0.97688868,-0.97688868,0.56400693,62.469007,2.2018906)"
   style="fill:#ffffff;fill-opacity:1"><path
     d="m 20.5,23 c -0.27615,0 -0.5,0.22385 -0.5,0.5 0,0.27615 0.22385,0.5 0.5,0.5 h 15 C 35.77615,24 36,23.77615 36,23.5 36,23.22385 35.77615,23 35.5,23 Z"
     fill="#ffffff"
     id="path2"
     style="opacity:1;fill:#ffffff;fill-opacity:1;stroke-width:0.5" /><path
     d="M 20,27.5 C 20,27.22385 20.22385,27 20.5,27 h 15 c 0.27615,0 0.5,0.22385 0.5,0.5 0,0.27615 -0.22385,0.5 -0.5,0.5 h -15 C 20.22385,28 20,27.77615 20,27.5 Z"
     fill="#ffffff"
     id="path3"
     style="opacity:1;fill:#ffffff;fill-opacity:1;stroke-width:0.5" /><path
     d="M 20,31.5 C 20,31.22385 20.22385,31 20.5,31 h 10 c 0.27615,0 0.5,0.22385 0.5,0.5 0,0.27615 -0.22385,0.5 -0.5,0.5 h -10 C 20.22385,32 20,31.77615 20,31.5 Z"
     fill="#ffffff"
     id="path4"
     style="opacity:1;fill:#ffffff;fill-opacity:1;stroke-width:0.5" /></g><g
   id="g8-0"
   transform="matrix(-0.56400693,0.97688868,0.97688868,0.56400693,1.5314667,2.2017239)"
   style="fill:#ffffff;fill-opacity:1"><path
     d="m 20.5,23 c -0.27615,0 -0.5,0.22385 -0.5,0.5 0,0.27615 0.22385,0.5 0.5,0.5 h 15 C 35.77615,24 36,23.77615 36,23.5 36,23.22385 35.77615,23 35.5,23 Z"
     fill="#ffffff"
     id="path2-6"
     style="opacity:1;fill:#ffffff;fill-opacity:1;stroke-width:0.5" /><path
     d="M 20,27.5 C 20,27.22385 20.22385,27 20.5,27 h 15 c 0.27615,0 0.5,0.22385 0.5,0.5 0,0.27615 -0.22385,0.5 -0.5,0.5 h -15 C 20.22385,28 20,27.77615 20,27.5 Z"
     fill="#ffffff"
     id="path3-2"
     style="opacity:1;fill:#ffffff;fill-opacity:1;stroke-width:0.5" /><path
     d="M 20,31.5 C 20,31.22385 20.22385,31 20.5,31 h 10 c 0.27615,0 0.5,0.22385 0.5,0.5 0,0.27615 -0.22385,0.5 -0.5,0.5 h -10 C 20.22385,32 20,31.77615 20,31.5 Z"
     fill="#ffffff"
     id="path4-6"
     style="opacity:1;fill:#ffffff;fill-opacity:1;stroke-width:0.5" /></g><ellipse
   style="opacity:1;fill:none;fill-opacity:1;stroke:#ffffff;stroke-width:2;stroke-miterlimit:0;stroke-dasharray:none"
   id="path8"
   cx="17.602385"
   cy="24.54344"
   rx="3.2084434"
   ry="4.2216358" /><ellipse
   style="fill:none;fill-opacity:1;stroke:#ffffff;stroke-width:2;stroke-miterlimit:0;stroke-dasharray:none"
   id="path8-9"
   cx="47.302525"
   cy="24.543636"
   rx="3.2084434"
   ry="4.2216358" /><path
   style="fill:#ffffff"
   d="m 24.400375,35.705815 c 0,-0.256 0.098,-0.512 0.293,-0.707 0.391,-0.391 1.023,-0.391 1.414,0 l 3.3,3.3 c 0.688,0.689 1.609,1.068 2.593,1.068 0.983,0 1.904,-0.379 2.593,-1.068 l 3.299,-3.299 c 0.391,-0.391 1.023,-0.391 1.414,0 0.391,0.391 0.391,1.023 0,1.414 l -3.299,3.299 c -1.066,1.067 -2.49,1.654 -4.007,1.654 -1.518,0 -2.94,-0.587 -4.007,-1.654 l -3.3,-3.3 c -0.195,-0.195 -0.293,-0.451 -0.293,-0.707 z"
   id="path2-0" /></svg>
