<?xml version="1.0" encoding="UTF-8" standalone="no"?>
<!-- Generator: Adobe Illustrator 17.0.1, SVG Export Plug-In . SVG Version: 6.00 Build 0)  -->

<svg
   version="1.1"
   id="Layer_1"
   x="0px"
   y="0px"
   width="64"
   height="64"
   viewBox="0 0 64 64"
   xml:space="preserve"
   xmlns="http://www.w3.org/2000/svg"
   xmlns:svg="http://www.w3.org/2000/svg"><defs
   id="defs4" />

<path
   style="display:inline;fill:#ffffff;stroke-width:0.782614"
   d="m 51.755176,45.143685 c -0.194871,0 -0.386611,-0.07278 -0.534525,-0.211306 L 40.879966,35.277265 H 15.747023 c -2.402626,0 -4.285597,-2.112276 -4.285597,-4.809166 v -6.663962 c 0,-2.696889 1.882188,-4.809948 4.285597,-4.809948 H 40.879966 L 51.221433,9.3539445 c 0.228524,-0.2128711 0.561135,-0.2692194 0.846007,-0.1455663 0.285654,0.1244357 0.471134,0.4061769 0.471134,0.7176574 V 44.361071 c 0,0.31148 -0.184697,0.594004 -0.471134,0.717657 -0.100958,0.04383 -0.206611,0.06496 -0.312264,0.06496 z M 15.747023,20.559418 c -1.702969,0 -2.720368,1.649751 -2.720368,3.244719 v 6.663962 c 0,1.594186 1.017399,3.243937 2.720368,3.243937 h 25.442076 c 0.198001,0 0.389742,0.07591 0.534526,0.211306 l 9.248937,8.636933 V 11.726049 l -9.250503,8.623628 c -0.145566,0.13461 -0.335741,0.210524 -0.533743,0.210524 H 15.747023 Z"
   id="path1" /><path
   id="path30"
   style="fill:#ffffff;stroke-width:0;stroke-dasharray:none"
   d="m 19.007607,35.162359 4.445312,16.59375 c 0.18303,0.683074 0.756428,1.571196 1.304688,2.019532 l 0.605469,0.496094 c 0.602804,0.493007 1.6253,0.711568 2.376953,0.509765 l 1.757812,-0.470703 c 0.631373,-0.169574 1.296384,-0.698437 1.654297,-1.318359 0.05952,-0.103084 0.109348,-0.20892 0.148438,-0.3125 l 0.277343,-0.732422 c 0.249625,-0.661732 0.302369,-1.716574 0.119141,-2.400391 L 27.841591,35.162359 h -1.125 l 3.931641,14.667969 c 0.125462,0.469713 0.0857,1.278592 -0.08594,1.732422 l -0.279296,0.734375 c -0.01937,0.05095 -0.04319,0.101974 -0.07227,0.152344 -0.209258,0.362446 -0.646664,0.71939 -0.994141,0.8125 l -1.757812,0.470703 c -0.408361,0.109421 -1.078246,-0.03491 -1.40625,-0.302734 L 25.44706,52.933844 c -0.376231,-0.30822 -0.817626,-0.989742 -0.943359,-1.458985 l -4.369141,-16.3125 z" /></svg>
