<?xml version="1.0" encoding="UTF-8" standalone="no"?>
<svg
   version="1.1"
   xml:space="preserve"
   width="115"
   height="115"
   viewBox="0 0 115 115"
   id="svg60"
   xmlns="http://www.w3.org/2000/svg"
   xmlns:svg="http://www.w3.org/2000/svg"
   xmlns:rdf="http://www.w3.org/1999/02/22-rdf-syntax-ns#"
   xmlns:cc="http://creativecommons.org/ns#"
   xmlns:dc="http://purl.org/dc/elements/1.1/"><metadata
     id="metadata64"><rdf:RDF><cc:Work
         rdf:about=""><dc:format>image/svg+xml</dc:format><dc:type
           rdf:resource="http://purl.org/dc/dcmitype/StillImage" /></cc:Work></rdf:RDF></metadata><defs
     id="defs8" /><g
     id="g67"
     transform="matrix(1.3333333,0,0,-1.3333333,0,114.66667)"><path
       id="path1"
       style="fill:#ffffff;stroke-width:0.514022"
       d="M 7.3666994,-0.24999751 H 13.407715 C 13.473739,7.176668 13.527642,19.920661 38.953126,30.533695 c 6.014066,2.518715 17.990166,7.709802 35.980958,15.522949 2.878529,1.182252 4.420504,2.312994 4.574707,3.443848 0.257017,2.158894 -2.825981,2.826888 -6.681152,4.060547 -3.186944,1.02804 -7.402004,2.210309 -9.612305,2.261719 -2.004688,0.05141 -4.21531,-0.77052 -6.682618,-2.466797 C 39.724174,41.996058 31.088374,36.239526 30.52295,36.136722 c -0.411217,-0.102797 -0.92485,-0.205867 -1.284668,0.102539 -0.359824,0.308415 -0.360492,0.925387 -0.309082,1.07959 0.308414,1.285057 16.088919,15.677305 17.014161,16.60254 3.495353,3.598163 7.454271,5.807999 1.337402,9.817383 -5.294434,3.495349 -8.328215,5.706661 -13.776856,9.253418 -3.443955,2.261698 -6.167954,4.934391 -9.766113,4.625977 C 22.09292,77.463966 20.397276,75.922115 19.523438,71.295903 17.467347,60.398626 13.456982,36.701004 12.531739,26.934573 12.451076,26.289277 8.8602631,7.8931458 7.3666994,-0.24999751 Z" /><path
       d="m 45.021808,7.8244771 q 0,2.6818299 2.547712,4.0562619 2.547719,1.407958 7.978373,2.01137 0.03352,0.972162 -0.134087,1.944332 -0.134092,1.005683 -0.569883,1.776712 -0.435796,0.804545 -1.240335,1.273864 -0.771018,0.502844 -2.011354,0.502844 -0.871587,0 -1.642606,-0.201134 -0.77102,-0.167614 -1.44147,-0.469318 -0.670452,-0.30171 -1.240335,-0.636936 -0.536359,-0.335233 -0.905112,-0.636935 l -0.536358,0.804543 q 0.368746,0.268187 0.938629,0.636936 0.603409,0.368749 1.340902,0.67046 0.77102,0.335226 1.676126,0.536365 0.905112,0.234659 1.877268,0.234659 1.407945,0 2.346583,-0.502847 0.938631,-0.469317 1.508513,-1.307386 0.569884,-0.838068 0.804537,-1.94433 0.234661,-1.072722 0.234661,-2.279547 V 3.9023 h -0.871587 l -0.134092,2.1454631 h -0.06707 Q 54.206967,5.0420783 52.731978,4.2710573 51.256983,3.5000279 49.647901,3.5000279 q -0.93863,0 -1.776692,0.2681786 -0.83807,0.2346637 -1.474996,0.7375061 -0.636927,0.5363657 -1.005681,1.3409101 -0.368747,0.8380679 -0.368747,1.9778544 z m 1.072722,0.033489 q 0,-0.9386378 0.268181,-1.6090971 0.301703,-0.6369276 0.804543,-1.0392082 0.502841,-0.4022722 1.139766,-0.6034124 0.670452,-0.1676086 1.407946,-0.1676086 1.474995,0 2.849424,0.6704509 1.374419,0.703991 2.983503,2.0784161 V 13.020484 Q 52.899611,12.718791 51.089394,12.249463 49.279177,11.813667 48.172928,11.176732 47.066687,10.539796 46.563847,9.7017284 46.09453,8.897175 46.09453,7.8579661 Z M 61.112624,6.5170566 q 1.005676,-0.8715911 2.21249,-1.4750037 1.206807,-0.6034123 3.017029,-0.6034123 1.005675,0 1.776699,0.2681786 0.771022,0.3017105 1.273851,0.7710295 0.50284,0.4693273 0.771023,1.0727314 0.268177,0.6369274 0.268177,1.3073867 0,0.8045531 -0.368744,1.3744417 -0.368746,0.6034129 -0.938631,1.0392085 -0.569884,0.46932 -1.307384,0.771021 -0.703977,0.301709 -1.407946,0.569889 -0.938637,0.335234 -1.877267,0.703983 -0.905105,0.36875 -1.67613,0.8716 -0.737491,0.502833 -1.206805,1.206817 -0.469316,0.737497 -0.469316,1.776705 0,0.838076 0.3017,1.575583 0.335222,0.771019 0.972161,1.340909 0.636923,0.569889 1.57555,0.905123 0.938631,0.335227 2.178978,0.335227 1.206805,0 2.380098,-0.469322 1.17329,-0.435794 2.044873,-1.139777 l -0.603406,-0.804553 q -0.804538,0.603412 -1.709652,1.039215 -0.905108,0.435797 -2.178967,0.435797 -1.005678,0 -1.743176,-0.268186 -0.737493,-0.26818 -1.206806,-0.737498 -0.469315,-0.435796 -0.703967,-1.005685 -0.234663,-0.536366 -0.234663,-1.139778 0,-0.737497 0.335223,-1.273873 0.33523,-0.502842 0.871584,-0.905113 0.569881,-0.368758 1.240336,-0.67046 0.703977,-0.301702 1.441469,-0.569889 0.938629,-0.368757 1.910791,-0.737506 0.972153,-0.368749 1.709651,-0.905114 0.771015,-0.502844 1.24033,-1.3073962 0.502838,-0.7710204 0.502838,-1.9443137 0,-0.8715997 -0.368746,-1.6761524 Q 70.800639,5.4443253 70.130194,4.8409126 69.493263,4.2375002 68.487588,3.8687514 67.515434,3.5000026 66.275096,3.5000026 q -1.810213,0 -3.285213,0.6369274 -1.474991,0.6704593 -2.547712,1.5755822 z M 76.26481,18.987605 h -2.547721 v 0.804544 l 2.547721,0.134092 0.134085,4.693198 h 0.871591 v -4.693198 h 4.760203 V 18.987604 H 77.270486 V 7.9921026 q 0,-0.771021 0.100565,-1.4414803 0.134091,-0.6369359 0.435791,-1.1062549 0.301708,-0.4693191 0.838069,-0.7375061 0.569875,-0.2681787 1.441468,-0.2681787 0.469314,0 1.039198,0.1676086 0.569885,0.1676253 1.0392,0.3687571 L 82.500002,4.1034488 Q 81.796036,3.8352702 81.092059,3.6676533 80.421604,3.5000449 80.019327,3.5000449 q -1.106235,0 -1.843727,0.3352253 -0.703976,0.3352339 -1.139769,0.9386379 -0.4358,0.6034126 -0.603406,1.4414804 -0.167616,0.8715995 -0.167616,1.9108076 z"
       id="text1"
       style="font-weight:200;font-size:20px;font-family:'Sail Sans Pro';-inkscape-font-specification:'Sail Sans Pro Ultra-Light';fill:#ffffff;stroke-width:0;stroke-linecap:square;stroke-miterlimit:0"
       aria-label="ast" /></g></svg>
