<?xml version="1.0" encoding="UTF-8" standalone="no"?>
<svg
   width="468"
   height="748"
   viewBox="0 0 468 748"
   fill="none"
   version="1.1"
   id="svg3"
   xmlns="http://www.w3.org/2000/svg"
   xmlns:svg="http://www.w3.org/2000/svg">
  <defs
     id="defs3" />
  <mask
     id="mask0"
     mask-type="alpha"
     maskUnits="userSpaceOnUse"
     x="0"
     y="0"
     width="97"
     height="96">
    <path
       d="M 48.1433,0.416016 96.0001,48.2728 48.8386,95.4343 0.981834,47.5775 Z"
       fill="#c4c4c4"
       id="path2" />
  </mask>
  <path
     fill-rule="evenodd"
     clip-rule="evenodd"
     fill="#ffffff"
     d="M 415.242,225.77508 C 312.73548,270.2922 244.49541,299.87263 210.22896,314.22354 -7.887261,405.26903 101.70276,523.83266 45.358741,525.08471 c -2.928757,0 -9.372023,-0.58575 -13.765169,-4.10025 -3.514507,-2.92878 -4.393133,-6.73616 -4.978883,-9.66492 C 26.028925,508.39079 59.105053,339.41087 59.690803,334.72485 64.962576,279.07846 87.806885,144.06272 99.521916,81.97306 104.50079,55.614238 114.1657,46.827958 123.53773,45.949348 c 20.5013,-1.75725 36.02371,13.47229 55.64641,26.358812 31.04482,20.20842 48.3245,32.80209 78.4907,52.71765 34.85221,22.84431 12.30076,35.43796 -7.61477,55.93926 -5.27178,5.27175 -95.18464,87.27699 -96.94189,94.59889 -0.29288,0.87861 -0.29288,4.39313 1.75725,6.15038 2.05015,1.75726 4.97889,1.1715 7.32191,0.58576 3.22162,-0.58576 52.42477,-33.38784 148.19514,-98.11338 14.05803,-9.6649 26.65168,-14.35092 38.07384,-14.05805 12.59366,0.29289 36.60948,7.02903 54.76777,12.88655 21.96568,7.029 39.53824,10.83639 38.07385,23.13718 -0.87862,6.44328 -9.66489,12.88653 -26.06594,19.62268 z"
     id="path2-5"
     style="fill:#ffffff;stroke-width:2.92876" />
  <g
     id="g4"
     transform="matrix(1.1785823,0,0,1.1785823,-74.78897,-106.85958)">
    <path
       opacity="0.5"
       d="m 215.58624,552.34042 c -3.8341,0.15502 -6.94717,3.25089 -6.9472,7.08866 l 8e-5,48.03687 c 124.6936,-1.7e-4 225.77735,-102.57412 225.77734,-229.10611 h -47.23805 c -3.83729,0 -6.93415,3.11259 -7.08251,6.94696 -0.75492,19.52132 -4.67673,38.21696 -11.25884,55.57249 -0.98658,2.6011 -0.41592,5.55179 1.53688,7.53308 l 12.14962,12.329 c 3.0777,3.1219 3.89428,7.85049 1.86828,11.73814 -19.38621,37.19991 -49.90622,67.50422 -87.05748,86.34308 -3.91811,1.9867 -8.6462,1.10329 -11.73004,-2.02576 l -12.35676,-12.53947 c -1.94666,-1.97613 -4.87842,-2.59177 -7.48985,-1.65627 -15.79188,5.65472 -32.64354,9.03115 -50.17152,9.73941 z"
       fill="#ffffff"
       id="path1"
       style="stroke-width:3.47424" />
    <g
       mask="url(#mask0)"
       id="g3"
       transform="matrix(-2.456655,-2.456655,2.456655,-2.456655,327.67358,730.97708)">
      <path
         d="M 142.796,95.0693 C 117.35,120.515 75.7587,120.233 49.8992,94.374 24.0397,68.5145 23.7577,26.9232 49.2039,1.47702 74.6501,-23.9692 116.241,-23.6871 142.101,2.17234 167.96,28.0318 168.242,69.6231 142.796,95.0693 Z"
         stroke="#ffffff"
         stroke-width="3"
         id="path3" />
    </g>
  </g>
</svg>
