<?xml version="1.0" encoding="UTF-8" standalone="no"?>
<svg
   version="1.1"
   xml:space="preserve"
   width="468"
   height="748"
   viewBox="0 0 467.99999 747.99999"
   id="svg60"
   xmlns="http://www.w3.org/2000/svg"
   xmlns:svg="http://www.w3.org/2000/svg"
   xmlns:rdf="http://www.w3.org/1999/02/22-rdf-syntax-ns#"
   xmlns:cc="http://creativecommons.org/ns#"
   xmlns:dc="http://purl.org/dc/elements/1.1/"><metadata
     id="metadata64"><rdf:RDF><cc:Work
         rdf:about=""><dc:format>image/svg+xml</dc:format><dc:type
           rdf:resource="http://purl.org/dc/dcmitype/StillImage" /></cc:Work></rdf:RDF></metadata><defs
     id="defs8" /><g
     id="g67"
     transform="matrix(1.3333333,0,0,-1.3333333,0,114.66667)"><path
       fill-rule="evenodd"
       clip-rule="evenodd"
       fill="#ffffff"
       d="M 311.4314,-105.22365 C 234.55151,-138.61149 183.37146,-160.79682 157.67162,-171.56 -5.9155522,-239.84412 76.276965,-328.76684 34.01895,-329.70588 c -2.196568,0 -7.029017,0.43931 -10.323877,3.07519 -2.63588,2.19658 -3.29485,5.05212 -3.734162,7.24869 -0.439323,2.19656 24.367773,128.9315 24.807086,132.44602 3.95383,41.73479 21.087062,142.9966 29.873335,189.5638435 C 78.375493,22.396981 85.624171,28.986686 92.653193,29.645649 108.02917,30.963586 119.67098,19.541433 134.388,9.8765365 c 23.28362,-15.156315 36.24338,-24.6015675 58.86803,-39.5382325 26.13916,-17.133232 9.22557,-26.578473 -5.71108,-41.954451 -3.95383,-3.953813 -71.38848,-65.457743 -72.70642,-70.949163 -0.21966,-0.65896 -0.21966,-3.29485 1.31794,-4.61279 1.53761,-1.31794 3.73417,-0.87862 5.49143,-0.43932 2.41622,0.43932 39.31858,25.04088 111.14636,73.58504 10.54352,7.248676 19.98876,10.763191 28.55538,10.543535 9.44525,-0.219668 27.45711,-5.271768 41.07583,-9.664909 16.47426,-5.271756 29.65368,-8.127296 28.55539,-17.352886 -0.65897,-4.83246 -7.24867,-9.6649 -19.54946,-14.71701 z"
       id="path2-5"
       style="fill:#ffffff;stroke-width:2.19657" /><path
       d="m 304.69254,-421.11036 q -14.81914,0 -22.41395,14.08268 -7.78004,14.0827 -11.11436,44.10105 -5.37194,0.1853 -10.74388,-0.74119 -5.55718,-0.74119 -9.81768,-3.15009 -4.44574,-2.40886 -7.0391,-6.85603 -2.77858,-4.26187 -2.77858,-11.1179 0,-4.81777 1.11144,-9.07964 0.92619,-4.26185 2.59334,-7.96783 1.66716,-3.70597 3.51955,-6.85604 1.8524,-2.96477 3.51955,-5.00306 l -4.44574,-2.96477 q -1.48192,2.03828 -3.51956,5.18836 -2.03762,3.33537 -3.70478,7.41194 -1.85239,4.26186 -2.96382,9.26491 -1.29668,5.00307 -1.29668,10.37672 0,7.78254 2.77859,12.9709 2.59335,5.18835 7.22433,8.33843 4.63099,3.15007 10.74387,4.44716 5.92767,1.29708 12.59629,1.29708 h 57.42417 v -4.81776 l -11.8553,-0.7412 v -0.37059 q 5.55717,-7.04134 9.81767,-15.19448 4.2605,-8.15313 4.2605,-17.04745 0,-5.18836 -1.48191,-9.82082 -1.29667,-4.63247 -4.07527,-8.15314 -2.96382,-3.52066 -7.40957,-5.55895 -4.63098,-2.03829 -10.92912,-2.03829 z m -0.18524,5.92956 q 5.1867,0 8.89149,1.48239 3.51954,1.66767 5.74242,4.44717 2.22287,2.77947 3.3343,6.30014 0.9262,3.70596 0.9262,7.78253 0,8.15313 -3.70479,15.75038 -3.89001,7.59723 -11.48483,16.49156 h -32.23163 q 1.66715,-14.63857 4.26051,-24.64469 2.40812,-10.00613 5.92765,-16.12097 3.51954,-6.11486 8.15053,-8.89433 4.44574,-2.59418 10.18815,-2.59418 z m 7.40958,83.01362 q 4.81621,5.55895 8.15053,12.22969 3.3343,6.67075 3.3343,16.67687 0,5.55896 -1.48192,9.82081 -1.66715,4.26187 -4.2605,7.04135 -2.59335,2.77948 -5.92765,4.26187 -3.51955,1.48238 -7.22434,1.48238 -4.44574,0 -7.59481,-2.03827 -3.33431,-2.03829 -5.74242,-5.18836 -2.59334,-3.15009 -4.26049,-7.22664 -1.66715,-3.89128 -3.14908,-7.78254 -1.85239,-5.18836 -3.89002,-10.37672 -2.03763,-5.00306 -4.81622,-9.26493 -2.77859,-4.07656 -6.66862,-6.67074 -4.07526,-2.59417 -9.81767,-2.59417 -4.63099,0 -8.70625,1.66767 -4.26051,1.85299 -7.40958,5.37367 -3.14906,3.52067 -5.00145,8.70902 -1.8524,5.18836 -1.8524,12.0444 0,6.67074 2.59335,13.15619 2.40811,6.48546 6.29813,11.3032 l 4.44575,-3.33536 q -3.33431,-4.44716 -5.74242,-9.45023 -2.40811,-5.00306 -2.40811,-12.0444 0,-5.55896 1.48191,-9.63551 1.48191,-4.07657 4.07527,-6.67075 2.40811,-2.59418 5.55718,-3.89126 2.96382,-1.2971 6.29814,-1.2971 4.07526,0 7.03909,1.85299 2.77858,1.85299 5.00145,4.81777 2.03764,3.15006 3.70479,6.85603 1.66715,3.89128 3.14908,7.96783 2.03762,5.18836 4.07525,10.56202 2.03764,5.37365 5.00146,9.45023 2.77859,4.26185 7.22434,6.85603 4.26051,2.77948 10.74388,2.77948 4.81622,0 9.26196,-2.03828 4.44574,-1.85299 7.78004,-5.55895 3.33431,-3.52068 5.37195,-9.07963 2.03763,-5.37366 2.03763,-12.22971 0,-10.0061 -3.51955,-18.15923 -3.70478,-8.15314 -8.70624,-14.0827 z m -68.90902,83.75483 v -14.08268 h -4.44573 l -0.74096,14.08268 -25.93351,0.74119 v 4.81776 h 25.93351 v 26.31238 h 5.18669 v -26.31238 h 60.75849 q 4.26051,0 7.96529,0.5559 3.51954,0.7412 6.11289,2.40888 2.59335,1.66769 4.07527,4.63246 1.48191,3.15007 1.48191,7.96783 0,2.59418 -0.9262,5.74426 -0.92619,3.15006 -2.03763,5.74424 l 4.81623,1.85299 q 1.48192,-3.89127 2.4081,-7.78253 0.92621,-3.70598 0.92621,-5.92955 0,-6.11484 -1.85239,-10.19142 -1.85241,-3.89127 -5.1867,-6.30014 -3.3343,-2.40888 -7.9653,-3.33538 -4.81623,-0.92649 -10.55862,-0.92649 z"
       id="text1"
       style="font-weight:200;font-size:20px;font-family:'Sail Sans Pro';-inkscape-font-specification:'Sail Sans Pro Ultra-Light';fill:#ffffff;stroke-width:0;stroke-linecap:square;stroke-miterlimit:0"
       aria-label="ast" /></g></svg>
