<?xml version="1.0" encoding="UTF-8" standalone="no"?>
<svg
   version="1.1"
   xml:space="preserve"
   width="468"
   height="748"
   viewBox="0 0 467.99999 747.99999"
   id="svg60"
   xmlns="http://www.w3.org/2000/svg"
   xmlns:svg="http://www.w3.org/2000/svg"
   xmlns:rdf="http://www.w3.org/1999/02/22-rdf-syntax-ns#"
   xmlns:cc="http://creativecommons.org/ns#"
   xmlns:dc="http://purl.org/dc/elements/1.1/"><metadata
     id="metadata64"><rdf:RDF><cc:Work
         rdf:about=""><dc:format>image/svg+xml</dc:format><dc:type
           rdf:resource="http://purl.org/dc/dcmitype/StillImage" /></cc:Work></rdf:RDF></metadata><defs
     id="defs8" /><g
     id="g67"
     transform="matrix(1.3333333,0,0,-1.3333333,0,114.66667)"><g
       id="text2"
       style="font-weight:200;font-size:185.239px;line-height:0.4;font-family:'Sail Sans Pro';-inkscape-font-specification:'Sail Sans Pro Ultra-Light';letter-spacing:7.5px;fill:#ffffff;stroke-width:0;stroke-linecap:square;stroke-miterlimit:0"
       transform="scale(1.0000012,-0.9999988)"
       aria-label="a  s    t"><path
         d="m 106.54639,280.4131 q 0,-14.81912 14.07817,-22.41392 14.07816,-7.78004 44.08688,-11.11434 0.18524,-5.37193 -0.74096,-10.74386 -0.74095,-5.55717 -3.14906,-9.81767 -2.40811,-4.44574 -6.85384,-7.03908 -4.2605,-2.77859 -11.11434,-2.77859 -4.81622,0 -9.07671,1.11144 -4.2605,0.92619 -7.96528,2.59334 -3.70478,1.66715 -6.85384,3.51954 -2.96383,1.85239 -5.00146,3.51954 l -2.96382,-4.44573 q 2.03763,-1.48191 5.18669,-3.51954 3.3343,-2.03763 7.40956,-3.70478 4.2605,-1.85239 9.26195,-2.96383 5.00145,-1.29667 10.37339,-1.29667 7.78003,0 12.96673,2.77859 5.18669,2.59334 8.33575,7.22432 3.14906,4.63097 4.44574,10.74386 1.29667,5.92765 1.29667,12.59625 v 57.42409 h -4.81621 l -0.74096,-11.8553 h -0.37048 q -7.03908,5.55717 -15.1896,9.81767 -8.15051,4.2605 -17.04198,4.2605 -5.1867,0 -9.81767,-1.48191 -4.63098,-1.29668 -8.15052,-4.07526 -3.51954,-2.96383 -5.55717,-7.40956 -2.03763,-4.63098 -2.03763,-10.9291 z m 5.92765,-0.18524 q 0,5.18669 1.48191,8.89147 1.66715,3.51954 4.44574,5.74241 2.77858,2.22287 6.29813,3.3343 3.70478,0.9262 7.78003,0.9262 8.15052,0 15.74532,-3.70478 7.5948,-3.89002 16.48627,-11.48482 v -32.23159 q -14.63388,1.66715 -24.63679,4.2605 -10.0029,2.40811 -16.11579,5.92765 -6.11289,3.51954 -8.89147,8.15051 -2.59335,4.44574 -2.59335,10.18815 z"
         id="path1" /><path
         d="m 192.30768,361.73303 q 5.55717,4.81621 12.22577,8.15052 6.66861,3.3343 16.67151,3.3343 5.55717,0 9.81767,-1.48191 4.26049,-1.66716 7.03908,-4.2605 2.77858,-2.59335 4.2605,-5.92765 1.48191,-3.51954 1.48191,-7.22432 0,-4.44574 -2.03763,-7.5948 -2.03763,-3.3343 -5.18669,-5.74241 -3.14907,-2.59334 -7.22432,-4.2605 -3.89002,-1.66715 -7.78004,-3.14906 -5.18669,-1.85239 -10.37338,-3.89002 -5.00146,-2.03763 -9.26195,-4.81621 -4.07526,-2.77859 -6.66861,-6.66861 -2.59334,-4.07525 -2.59334,-9.81766 0,-4.63098 1.66715,-8.70624 1.85239,-4.26049 5.37193,-7.40956 3.51954,-3.14906 8.70623,-5.00145 5.18669,-1.85239 12.04054,-1.85239 6.6686,0 13.15196,2.59335 6.48337,2.4081 11.29958,6.29812 l -3.3343,4.44574 q -4.44574,-3.3343 -9.44719,-5.74241 -5.00145,-2.40811 -12.04053,-2.40811 -5.55717,0 -9.63243,1.48192 -4.07526,1.48191 -6.6686,4.07525 -2.59335,2.40811 -3.89002,5.55717 -1.29668,2.96383 -1.29668,6.29813 0,4.07526 1.85239,7.03908 1.85239,2.77859 4.81622,5.00145 3.14906,2.03763 6.85384,3.70478 3.89002,1.66716 7.96528,3.14907 5.18669,2.03763 10.55862,4.07526 5.37193,2.03762 9.44719,5.00145 4.2605,2.77858 6.85384,7.22432 2.77859,4.2605 2.77859,10.74386 0,4.81622 -2.03763,9.26195 -1.85239,4.44574 -5.55717,7.78004 -3.51954,3.3343 -9.07671,5.37193 -5.37193,2.03763 -12.22578,2.03763 -10.0029,0 -18.15342,-3.51954 -8.15051,-3.70478 -14.07816,-8.70623 z"
         id="path2" /><path
         d="m 290.29473,366.9197 h -14.07816 v -4.44573 l 14.07816,-0.74096 0.74096,-25.93346 h 4.81621 v 25.93346 h 26.30394 v 5.18669 H 295.8519 v 60.75839 q 0,4.2605 0.55572,7.96528 0.74096,3.51954 2.40811,6.11289 1.66715,2.59334 4.63097,4.07526 3.14907,1.48191 7.96528,1.48191 2.59335,0 5.74241,-0.9262 3.14906,-0.92619 5.74241,-2.03763 l 1.85239,4.81622 q -3.89002,1.48191 -7.78004,2.40811 -3.70478,0.92619 -5.92765,0.92619 -6.11288,0 -10.18814,-1.85239 -3.89002,-1.85239 -6.29813,-5.18669 -2.40811,-3.3343 -3.3343,-7.96528 -0.9262,-4.81621 -0.9262,-10.55862 z"
         id="path3" /></g><path
       fill-rule="evenodd"
       clip-rule="evenodd"
       fill="#ffffff"
       d="M 311.4314,-105.22365 C 234.55151,-138.61149 183.37146,-160.79682 157.67162,-171.56 -5.9155522,-239.84412 76.276965,-328.76684 34.01895,-329.70588 c -2.196568,0 -7.029017,0.43931 -10.323877,3.07519 -2.63588,2.19658 -3.29485,5.05212 -3.734162,7.24869 -0.439323,2.19656 24.367773,128.9315 24.807086,132.44602 3.95383,41.73479 21.087062,142.9966 29.873335,189.5638435 C 78.375493,22.396981 85.624171,28.986686 92.653193,29.645649 108.02917,30.963586 119.67098,19.541433 134.388,9.8765365 c 23.28362,-15.156315 36.24338,-24.6015675 58.86803,-39.5382325 26.13916,-17.133232 9.22557,-26.578473 -5.71108,-41.954451 -3.95383,-3.953813 -71.38848,-65.457743 -72.70642,-70.949163 -0.21966,-0.65896 -0.21966,-3.29485 1.31794,-4.61279 1.53761,-1.31794 3.73417,-0.87862 5.49143,-0.43932 2.41622,0.43932 39.31858,25.04088 111.14636,73.58504 10.54352,7.248676 19.98876,10.763191 28.55538,10.543535 9.44525,-0.219668 27.45711,-5.271768 41.07583,-9.664909 16.47426,-5.271756 29.65368,-8.127296 28.55539,-17.352886 -0.65897,-4.83246 -7.24867,-9.6649 -19.54946,-14.71701 z"
       id="path2-5"
       style="fill:#ffffff;stroke-width:2.19657" /></g></svg>
