<?xml version="1.0" encoding="UTF-8" standalone="no"?>
<svg
   version="1.1"
   xml:space="preserve"
   width="468"
   height="748"
   viewBox="0 0 467.99999 747.99999"
   id="svg60"
   xmlns="http://www.w3.org/2000/svg"
   xmlns:svg="http://www.w3.org/2000/svg"
   xmlns:rdf="http://www.w3.org/1999/02/22-rdf-syntax-ns#"
   xmlns:cc="http://creativecommons.org/ns#"
   xmlns:dc="http://purl.org/dc/elements/1.1/"><metadata
     id="metadata64"><rdf:RDF><cc:Work
         rdf:about=""><dc:format>image/svg+xml</dc:format><dc:type
           rdf:resource="http://purl.org/dc/dcmitype/StillImage" /></cc:Work></rdf:RDF></metadata><defs
     id="defs8" /><path
     fill-rule="evenodd"
     clip-rule="evenodd"
     fill="#ffffff"
     d="M 415.24186,254.96487 C 312.73534,299.48199 244.49527,329.06242 210.22882,343.41333 -7.8874027,434.45882 101.70262,553.02245 45.358599,554.2745 c -2.928757,0 -9.372023,-0.58575 -13.765169,-4.10025 -3.514507,-2.92878 -4.393133,-6.73616 -4.978883,-9.66492 -0.585764,-2.92875 32.490364,-171.90867 33.076114,-176.59469 5.271773,-55.64639 28.116082,-190.66213 39.831113,-252.75179 4.978876,-26.358821 14.643786,-35.145094 24.015816,-36.023711 20.5013,-1.757249 36.02371,13.472288 55.64641,26.358811 31.04482,20.20842 48.3245,32.80209 78.4907,52.71765 34.85221,22.84431 12.30076,35.43796 -7.61477,55.93926 -5.27178,5.27175 -95.18464,87.27699 -96.94189,94.59889 -0.29288,0.87861 -0.29288,4.39313 1.75725,6.15038 2.05015,1.75726 4.97889,1.1715 7.32191,0.58576 3.22162,-0.58576 52.42477,-33.38784 148.19514,-98.11338 14.05803,-9.6649 26.65168,-14.35092 38.07384,-14.05805 12.59366,0.29289 36.60948,7.02903 54.76777,12.88655 21.96568,7.029 39.53824,10.83639 38.07385,23.13718 -0.87862,6.44328 -9.66489,12.88653 -26.06594,19.62268 z"
     id="path2-5"
     style="fill:#ffffff;stroke-width:2.92876" /><text
     xml:space="preserve"
     style="font-weight:200;font-size:196.952px;line-height:0.75;font-family:'Sail Sans Pro';-inkscape-font-specification:'Sail Sans Pro Ultra-Light';text-align:center;letter-spacing:0.440198px;word-spacing:0px;writing-mode:lr-tb;direction:ltr;text-anchor:middle;fill:#ffffff;stroke-width:0;stroke-linecap:square;stroke-miterlimit:0"
     x="406.72736"
     y="423.72568"
     id="text1"><tspan
       id="tspan1"
       x="406.72736"
       y="423.72568"
       style="line-height:0.75;letter-spacing:0.440198px;word-spacing:0px;stroke-width:0">a</tspan><tspan
       x="406.72736"
       y="571.4397"
       style="line-height:0.75;letter-spacing:0.440198px;word-spacing:0px;stroke-width:0"
       id="tspan3">s</tspan><tspan
       x="406.94745"
       y="719.15369"
       style="line-height:0.75;letter-spacing:0.440198px;word-spacing:0px;stroke-width:0"
       dx="0"
       id="tspan4">t</tspan></text></svg>
