<?xml version="1.0" encoding="UTF-8" standalone="no"?>
<svg
   version="1.1"
   xml:space="preserve"
   width="468"
   height="748"
   viewBox="0 0 467.99999 747.99999"
   id="svg60"
   sodipodi:docname="cover-background.svg"
   inkscape:version="1.4.4 (dcaf3e7d9e, 2026-05-05)"
   xmlns:inkscape="http://www.inkscape.org/namespaces/inkscape"
   xmlns:sodipodi="http://sodipodi.sourceforge.net/DTD/sodipodi-0.dtd"
   xmlns="http://www.w3.org/2000/svg"
   xmlns:svg="http://www.w3.org/2000/svg"
   xmlns:rdf="http://www.w3.org/1999/02/22-rdf-syntax-ns#"
   xmlns:cc="http://creativecommons.org/ns#"
   xmlns:dc="http://purl.org/dc/elements/1.1/"><sodipodi:namedview
     id="namedview1"
     pagecolor="#ffffff"
     bordercolor="#000000"
     borderopacity="0.25"
     inkscape:showpageshadow="2"
     inkscape:pageopacity="0.0"
     inkscape:pagecheckerboard="0"
     inkscape:deskcolor="#d1d1d1"
     inkscape:zoom="0.93850267"
     inkscape:cx="233.88319"
     inkscape:cy="374"
     inkscape:window-width="1536"
     inkscape:window-height="955"
     inkscape:window-x="0"
     inkscape:window-y="0"
     inkscape:window-maximized="1"
     inkscape:current-layer="svg60" /><metadata
     id="metadata64"><rdf:RDF><cc:Work
         rdf:about=""><dc:format>image/svg+xml</dc:format><dc:type
           rdf:resource="http://purl.org/dc/dcmitype/StillImage" /></cc:Work></rdf:RDF></metadata><defs
     id="defs8" /><path
     fill-rule="evenodd"
     clip-rule="evenodd"
     fill="#ffffff"
     d="M 415.24186,254.96487 C 312.73534,299.48199 244.49527,329.06242 210.22882,343.41333 -7.8874027,434.45882 101.70262,553.02245 45.358599,554.2745 c -2.928757,0 -9.372023,-0.58575 -13.765169,-4.10025 -3.514507,-2.92878 -4.393133,-6.73616 -4.978883,-9.66492 -0.585764,-2.92875 32.490364,-171.90867 33.076114,-176.59469 5.271773,-55.64639 28.116082,-190.66213 39.831113,-252.75179 4.978876,-26.358821 14.643786,-35.145094 24.015816,-36.023711 20.5013,-1.757249 36.02371,13.472288 55.64641,26.358811 31.04482,20.20842 48.3245,32.80209 78.4907,52.71765 34.85221,22.84431 12.30076,35.43796 -7.61477,55.93926 -5.27178,5.27175 -95.18464,87.27699 -96.94189,94.59889 -0.29288,0.87861 -0.29288,4.39313 1.75725,6.15038 2.05015,1.75726 4.97889,1.1715 7.32191,0.58576 3.22162,-0.58576 52.42477,-33.38784 148.19514,-98.11338 14.05803,-9.6649 26.65168,-14.35092 38.07384,-14.05805 12.59366,0.29289 36.60948,7.02903 54.76777,12.88655 21.96568,7.029 39.53824,10.83639 38.07385,23.13718 -0.87862,6.44328 -9.66489,12.88653 -26.06594,19.62268 z"
     id="path2-5"
     style="fill:#ffffff;stroke-width:2.92876" /><g
     id="text1"
     style="font-weight:200;font-size:196.952px;line-height:0.75;font-family:'Sail Sans Pro';-inkscape-font-specification:'Sail Sans Pro Ultra-Light';text-align:center;letter-spacing:0.440198px;word-spacing:0px;text-anchor:middle;fill:#ffffff;stroke-width:0;stroke-linecap:square;stroke-miterlimit:0"
     aria-label="ast"><path
       d="m 371.2529,400.68229 q 0,-15.75616 14.96835,-23.83119 14.96835,-8.27198 46.87458,-11.81712 0.19695,-5.71161 -0.78781,-11.42321 -0.78781,-5.90856 -3.34818,-10.43846 -2.56038,-4.72685 -7.28723,-7.48417 -4.52989,-2.95428 -11.81712,-2.95428 -5.12075,0 -9.65065,1.18171 -4.52989,0.98476 -8.46893,2.75733 -3.93904,1.77256 -7.28723,3.74208 -3.15123,1.96952 -5.3177,3.74209 l -3.15123,-4.72685 q 2.16647,-1.57561 5.51465,-3.74208 3.54514,-2.16648 7.87808,-3.93904 4.5299,-1.96952 9.8476,-3.15124 5.31771,-1.37866 11.02932,-1.37866 8.27198,0 13.78664,2.95428 5.51465,2.75733 8.86284,7.68113 3.34818,4.9238 4.72684,11.42321 1.37867,6.30247 1.37867,13.39274 v 61.05512 h -5.12075 l -0.78781,-12.60493 h -0.39391 q -7.48417,5.90856 -16.15006,10.43846 -8.66589,4.52989 -18.11958,4.52989 -5.51466,0 -10.43846,-1.57561 -4.9238,-1.37867 -8.66589,-4.33295 -3.74209,-3.15123 -5.90856,-7.87808 -2.16647,-4.9238 -2.16647,-11.62017 z m 6.30246,-0.19695 q 0,5.51466 1.57562,9.4537 1.77257,3.74209 4.72685,6.10551 2.95428,2.36342 6.69637,3.54514 3.93904,0.98476 8.27198,0.98476 8.66589,0 16.74092,-3.93904 8.07503,-4.136 17.52873,-12.21103 v -34.26965 q -15.55921,1.77257 -26.19462,4.5299 -10.63541,2.56038 -17.13482,6.30246 -6.49942,3.74209 -9.4537,8.66589 -2.75733,4.72685 -2.75733,10.83236 z"
       id="path1" /><path
       d="m 377.7523,556.07744 q 5.90856,5.12075 12.99883,8.66589 7.09028,3.54514 17.72568,3.54514 5.90856,0 10.43846,-1.57562 4.5299,-1.77257 7.48418,-4.5299 2.95428,-2.75732 4.52989,-6.30246 1.57562,-3.74209 1.57562,-7.68113 0,-4.72685 -2.16647,-8.07503 -2.16648,-3.54514 -5.51466,-6.10551 -3.34818,-2.75733 -7.68113,-4.5299 -4.13599,-1.77257 -8.27198,-3.34818 -5.51466,-1.96952 -11.02931,-4.13599 -5.31771,-2.16648 -9.8476,-5.12076 -4.33295,-2.95428 -7.09027,-7.09027 -2.75733,-4.33294 -2.75733,-10.43845 0,-4.9238 1.77257,-9.25675 1.96952,-4.52989 5.7116,-7.87808 3.74209,-3.34818 9.25675,-5.3177 5.51465,-1.96952 12.80188,-1.96952 7.09027,0 13.98359,2.75733 6.89332,2.56037 12.01407,6.69637 l -3.54514,4.72684 q -4.72684,-3.54513 -10.04455,-6.10551 -5.3177,-2.56037 -12.80188,-2.56037 -5.90856,0 -10.2415,1.57561 -4.33295,1.57562 -7.09027,4.33295 -2.75733,2.56037 -4.136,5.90855 -1.37866,3.15124 -1.37866,6.69637 0,4.33295 1.96952,7.48418 1.96952,2.95428 5.12075,5.3177 3.34819,2.16647 7.28723,3.93904 4.13599,1.77257 8.46893,3.34819 5.51466,2.16647 11.22627,4.33294 5.7116,2.16647 10.04455,5.3177 4.52989,2.95428 7.28722,7.68113 2.95428,4.5299 2.95428,11.42322 0,5.12075 -2.16647,9.8476 -1.96952,4.72685 -5.90856,8.27198 -3.74209,3.54514 -9.65065,5.71161 -5.71161,2.16647 -12.99883,2.16647 -10.63541,0 -19.3013,-3.74209 -8.66588,-3.93904 -14.96835,-9.25674 z"
       id="path2" /><path
       d="m 398.0846,630.52529 h -14.96835 v -4.72685 l 14.96835,-0.78781 0.78781,-27.57328 h 5.12075 v 27.57328 h 27.96719 v 5.51466 h -27.96719 v 64.60025 q 0,4.5299 0.59086,8.46894 0.78781,3.74209 2.56038,6.49941 1.77256,2.75733 4.9238,4.33295 3.34818,1.57561 8.46893,1.57561 2.75733,0 6.10551,-0.98476 3.34819,-0.98476 6.10552,-2.16647 l 1.96952,5.12075 q -4.136,1.57562 -8.27199,2.56038 -3.93904,0.98476 -6.30246,0.98476 -6.49942,0 -10.83236,-1.96952 -4.13599,-1.96952 -6.69637,-5.51466 -2.56038,-3.54513 -3.54514,-8.46893 -0.98476,-5.12075 -0.98476,-11.22626 z"
       id="path3" /></g></svg>
