<?xml version="1.0" encoding="UTF-8" standalone="no"?>
<!-- Generator: Adobe Illustrator 22.1.0, SVG Export Plug-In . SVG Version: 6.00 Build 0)  -->

<svg
   version="1.1"
   id="Layer_1"
   x="0px"
   y="0px"
   width="42"
   height="42"
   viewBox="0 0 42 42"
   xml:space="preserve"
   xmlns="http://www.w3.org/2000/svg"
   xmlns:svg="http://www.w3.org/2000/svg"><defs
   id="defs2" />
<path
   style="fill:#ffffff"
   d="m 20.231624,17.148386 h -3.884845 c -0.551543,0 -0.75024,-0.485782 -0.439113,-0.942573 l 4.763071,-7.0639968 c 0.311834,-0.457498 0.81883,-0.4850752 1.127835,-0.028991 l 4.762365,7.1071298 c 0.311127,0.456791 0.115258,0.928431 -0.436285,0.928431 h -3.884845 z"
   id="path2" /><path
   style="fill:#ffffff"
   d="m 31.221887,24.833407 h -9.885 c -0.602,0 -1.089,-0.487 -1.089,-1.089 0,-0.602 0.488,-1.089 1.089,-1.089 h 9.885 c 0.602,0 1.089,0.487 1.089,1.089 0,0.602 -0.487,1.089 -1.089,1.089 z"
   id="path1-6" /><path
   style="fill:#ffffff"
   d="m 21.336887,24.705407 c -0.602,0 -1.089,-0.487 -1.089,-1.089 v -6.456 c 0,-0.602 0.488,-1.089 1.089,-1.089 0.601,0 1.089,0.488 1.089,1.089 v 6.456 c 0,0.602 -0.487,1.089 -1.089,1.089 z"
   id="path2-7" />
</svg>
