<?xml version="1.0" encoding="UTF-8"?><svg version="1.1" viewBox="0 0 64 64" xml:space="preserve" xmlns="http://www.w3.org/2000/svg"><path d="m52.196 39.003h-0.15347c-0.553 0-1-0.447-1-1s0.447-1 1-1h0.15447c3.854 0 7.11-3.378 7.11-7.377 0-3.995-3.189-7.246-7.11-7.246l-0.253-4e-3c-0.112-2e-3 -0.223-7e-3 -0.338 2e-3l-1.664 0.139 0.663-1.532c0.388-0.895 0.592-1.883 0.592-2.86 0-3.93-3.191-7.128-7.113-7.128-2.717 0-5.154 1.53-6.36 3.993l-0.817 1.667-0.942-1.6c-2.201-3.735-6.245-6.055-10.554-6.055-6.755 0-12.25 5.494-12.25 12.247v1h-1c-3.854 0-7.111 3.378-7.111 7.377 0 3.998 3.256 7.376 7.111 7.376h26.21c0.552 0 1.0005 0.447 1.0005 1s-0.44847 1-1.0005 1h-26.212c-4.938 0-9.111-4.294-9.111-9.376 0-4.747 3.639-8.806 8.142-9.322 0.488-7.417 6.679-13.302 14.219-13.302 4.471 0 8.697 2.146 11.374 5.69 1.695-2.313 4.37-3.696 7.3-3.696 5.025 0 9.113 4.095 9.113 9.128 0 0.766-0.099 1.538-0.289 2.284 4.692 0.369 8.399 4.362 8.399 9.218 1e-3 5.083-4.171 9.377-9.11 9.377z" fill="#fff" opacity=".6"/><g transform="translate(13.028)" fill="#fff"><path d="m32.045 55c-0.552 0-1-0.447-1-1v-10.694c0-0.553 0.448-1 1-1s1 0.447 1 1v10.694c0 0.553-0.448 1-1 1z"/><path d="m32.178 32.235 7.222 10.625h-14.444l7.222-10.625m0-2.586c-0.408 0-0.815 0.227-1.124 0.682l-8.751 12.875c-0.618 0.91-0.224 1.654 0.876 1.654h18c1.1 0 1.494-0.744 0.876-1.654l-8.751-12.875c-0.311-0.455-0.719-0.682-1.126-0.682z"/></g><g transform="matrix(1 0 0 1 -12.13 0)" fill="#fff"><path d="m32 45.433c-0.552 0-1-0.447-1-1v-15.433c0-0.552 0.448-1 1-1s1 0.448 1 1v15.433c0 0.552-0.448 1-1 1z"/><path d="m39.222 45.878-7.222 10.626-7.222-10.626h14.444m1.778-2h-18c-1.1 0-1.494 0.744-0.876 1.654l8.752 12.875c0.309 0.455 0.717 0.682 1.124 0.682 0.408 0 0.815-0.227 1.124-0.682l8.751-12.875c0.619-0.91 0.225-1.654-0.875-1.654z"/></g></svg>
