<?xml version="1.0" encoding="UTF-8" standalone="no"?>
<!-- Generator: Adobe Illustrator 17.0.1, SVG Export Plug-In . SVG Version: 6.00 Build 0)  -->

<svg
   version="1.1"
   id="Layer_1"
   x="0px"
   y="0px"
   width="96"
   height="96"
   viewBox="0 0 96 96"
   xml:space="preserve"
   xmlns="http://www.w3.org/2000/svg"
   xmlns:svg="http://www.w3.org/2000/svg"><defs
   id="defs2" />
<g
   id="icon-m-backup"
   transform="scale(1.5)">
	<rect
   id="icon-m-backup_1_"
   style="opacity:0;fill:#ffffff"
   width="64"
   height="64"
   x="0"
   y="0" />
	<path
   style="fill:#ffffff"
   d="M 48,34 H 32 c -0.552,0 -1,-0.447 -1,-1 V 15 c 0,-0.552 0.448,-1 1,-1 0.552,0 1,0.448 1,1 v 17 h 15 c 0.553,0 1,0.448 1,1 0,0.553 -0.447,1 -1,1 z"
   id="path1" />
	<g
   style="opacity:0.6"
   id="g2">
		<path
   style="fill:#ffffff"
   d="m 32.401,56.482 c -5.153,0 -10.083,-1.582 -14.256,-4.576 -0.449,-0.322 -0.551,-0.946 -0.229,-1.396 0.321,-0.449 0.945,-0.553 1.396,-0.229 3.831,2.748 8.357,4.201 13.09,4.201 C 44.798,54.482 54.884,44.396 54.884,32 54.884,19.603 44.798,9.518 32.402,9.518 20.004,9.518 9.919,19.603 9.919,32 h 7.731 c 0.325,0 0.63,0.158 0.817,0.424 0.188,0.266 0.234,0.606 0.124,0.913 l -4.65,13 c -0.122,0.341 -0.418,0.589 -0.775,0.649 -0.358,0.057 -0.718,-0.077 -0.945,-0.36 C 8.43,41.91 7.919,36.586 7.919,32 7.919,18.5 18.902,7.518 32.401,7.518 45.901,7.518 56.883,18.501 56.883,32 56.884,45.5 45.901,56.482 32.401,56.482 Z M 9.963,34 c 0.194,4.161 1.038,7.214 2.735,9.873 L 16.23,34 Z"
   id="path2" />
	</g>
</g>
</svg>
